<svg xmlns="http://www.w3.org/2000/svg" width="65.625" height="65.625" viewBox="0 0 65.625 65.625">
  <path d="M58.594,4.687a7.031,7.031,0,0,0,7.031-7.031V-53.906a7.031,7.031,0,0,0-7.031-7.031H7.031A7.031,7.031,0,0,0,0-53.906V-2.344A7.031,7.031,0,0,0,7.031,4.687ZM28.61-9.677a2.344,2.344,0,0,1-3.315,0L10.061-24.911a2.344,2.344,0,0,1,0-3.314l3.315-3.315a2.344,2.344,0,0,1,3.315,0L26.953-21.278,48.934-43.259a2.344,2.344,0,0,1,3.315,0l3.315,3.315a2.344,2.344,0,0,1,0,3.314Z" transform="translate(0 60.937)"/>
</svg>