<svg xmlns="http://www.w3.org/2000/svg" width="72.656" height="72.656" viewBox="0 0 72.656 72.656">
  <path d="M73.828-28.125A36.328,36.328,0,0,0,37.5-64.453,36.328,36.328,0,0,0,1.172-28.125,36.328,36.328,0,0,0,37.5,8.2,36.328,36.328,0,0,0,73.828-28.125ZM33.3-8.889a2.344,2.344,0,0,1-3.315,0L14.749-24.124a2.344,2.344,0,0,1,0-3.315l3.315-3.314a2.344,2.344,0,0,1,3.315,0L31.641-20.49,53.622-42.472a2.344,2.344,0,0,1,3.315,0l3.315,3.314a2.344,2.344,0,0,1,0,3.315Z" transform="translate(-1.172 64.453)"/>
</svg>