<svg xmlns="http://www.w3.org/2000/svg" width="72.656" height="72.656" viewBox="0 0 72.656 72.656">
<path class="a" d="M37.5-64.453A36.322,36.322,0,0,0,1.172-28.125,36.322,36.322,0,0,0,37.5,8.2,36.322,36.322,0,0,0,73.828-28.125,36.322,36.322,0,0,0,37.5-64.453ZM55.312-18.589a1.759,1.759,0,0,1,0,2.49l-5.8,5.786a1.759,1.759,0,0,1-2.49,0L37.5-19.922l-9.536,9.609a1.759,1.759,0,0,1-2.49,0l-5.786-5.8a1.759,1.759,0,0,1,0-2.49L29.3-28.125l-9.609-9.536a1.759,1.759,0,0,1,0-2.49l5.8-5.8a1.759,1.759,0,0,1,2.49,0L37.5-36.328l9.536-9.609a1.759,1.759,0,0,1,2.49,0l5.8,5.8a1.759,1.759,0,0,1,0,2.49L45.7-28.125Z" transform="translate(-1.172 64.453)"/>
</svg>