<svg xmlns="http://www.w3.org/2000/svg" width="72.656" height="72.656" viewBox="0 0 72.656 72.656">
  <path d="M73.828-28.125A36.334,36.334,0,0,0,37.5-64.453,36.334,36.334,0,0,0,1.172-28.125,36.326,36.326,0,0,0,37.5,8.2,36.326,36.326,0,0,0,73.828-28.125ZM37.5-20.8a6.738,6.738,0,0,1,6.738,6.738A6.738,6.738,0,0,1,37.5-7.324a6.738,6.738,0,0,1-6.738-6.738A6.738,6.738,0,0,1,37.5-20.8ZM31.1-45.021a1.758,1.758,0,0,1,1.755-1.854h9.285A1.758,1.758,0,0,1,43.9-45.021L42.811-25.1a1.758,1.758,0,0,1-1.755,1.662H33.944A1.758,1.758,0,0,1,32.189-25.1Z" transform="translate(-1.172 64.453)"/>
</svg>