<svg xmlns="http://www.w3.org/2000/svg" width="56.25" height="75.014" viewBox="0 0 56.25 75.014">
  <path d="M54.184-51.284l-12.29-12.29a7.032,7.032,0,0,0-4.966-2.065H7.031A7.055,7.055,0,0,0,0-58.594V2.344A7.033,7.033,0,0,0,7.031,9.375H49.219A7.033,7.033,0,0,0,56.25,2.344V-46.3A7.065,7.065,0,0,0,54.184-51.284Zm-5.537,4.409H37.5V-58.022ZM7.031,2.344V-58.594H30.469v15.234a3.507,3.507,0,0,0,3.516,3.516H49.219V2.344Zm36.65-21.05c-1.787-1.758-6.885-1.274-9.434-.952a12.7,12.7,0,0,1-5.391-6.782c.571-2.358,1.479-5.947.791-8.2-.615-3.838-5.537-3.457-6.24-.864-.644,2.358-.059,5.64,1.025,9.829a117.624,117.624,0,0,1-5.185,10.9c-2.93,1.509-6.885,3.838-7.471,6.768C11.294-5.7,15.586.073,22.925-12.583a72.629,72.629,0,0,1,10.02-2.944,19.49,19.49,0,0,0,8.174,2.49C44.853-13.037,45.22-17.168,43.682-18.706ZM14.663-7.31c.747-2.007,3.589-4.321,4.453-5.127C16.333-8,14.663-7.207,14.663-7.31Zm11.953-27.92c1.084,0,.981,4.7.264,5.977C26.235-31.289,26.25-35.229,26.616-35.229ZM23.042-15.22a57.5,57.5,0,0,0,3.618-8.013,16.143,16.143,0,0,0,4.409,5.2A49.566,49.566,0,0,0,23.042-15.22Zm19.277-.732s-.732.879-5.464-1.143C42-17.476,42.847-16.3,42.319-15.952Z" transform="translate(0 65.639)"/>
</svg>