<svg xmlns="http://www.w3.org/2000/svg" width="56.25" height="75.014" viewBox="0 0 56.25 75.014">
  <path d="M54.184-51.284l-12.29-12.29a7.032,7.032,0,0,0-4.966-2.065H7.031A7.055,7.055,0,0,0,0-58.594V2.344A7.033,7.033,0,0,0,7.031,9.375H49.219A7.033,7.033,0,0,0,56.25,2.344V-46.3A7.065,7.065,0,0,0,54.184-51.284Zm-5.537,4.409H37.5V-58.022ZM7.031,2.344V-58.594H30.469v15.234a3.507,3.507,0,0,0,3.516,3.516H49.219V2.344ZM39.272-28.125a1.744,1.744,0,0,0-1.714,1.392c-3.018,14.312-2.988,13.975-3.076,15.161-.029-.176-.059-.381-.1-.63-.117-.747.044.029-3.457-14.575a1.756,1.756,0,0,0-1.714-1.348H27.261a1.785,1.785,0,0,0-1.714,1.333C21.973-12.29,22.031-12.7,21.914-11.6c-.015-.161-.029-.366-.073-.615-.1-.762-2.065-10.737-2.8-14.5a1.759,1.759,0,0,0-1.728-1.421H14.854a1.761,1.761,0,0,0-1.714,2.168C14.312-21.2,17.051-9.932,18-6.05a1.744,1.744,0,0,0,1.714,1.333h3.691a1.74,1.74,0,0,0,1.7-1.333l2.622-10.459a18.09,18.09,0,0,0,.439-2.534l.425,2.534c.015.059,1.846,7.4,2.622,10.459a1.755,1.755,0,0,0,1.7,1.333h3.618a1.739,1.739,0,0,0,1.7-1.333c3.047-12,4.424-17.432,5.054-19.922a1.751,1.751,0,0,0-1.7-2.183H39.272Z" transform="translate(0 65.639)"/>
</svg>