<svg xmlns="http://www.w3.org/2000/svg" width="25.507" height="34.016" viewBox="0 0 25.507 34.016">
  <path id="file-image-regular" d="M24.571,6.41,19,.837A3.189,3.189,0,0,0,16.746-.1H3.188A3.2,3.2,0,0,0,0,3.1V30.728a3.189,3.189,0,0,0,3.188,3.188h19.13a3.189,3.189,0,0,0,3.188-3.188V8.668a3.2,3.2,0,0,0-.937-2.258Zm-2.511,2H17V3.354ZM3.188,30.728V3.1H13.816V10A1.59,1.59,0,0,0,15.411,11.6h6.908v19.13ZM5.314,27.54H20.193v-8.5l-1.561-1.561a.8.8,0,0,0-1.129,0l-5.812,5.812L9.067,20.665a.8.8,0,0,0-1.129,0L5.314,23.288ZM8.5,11.6a3.188,3.188,0,1,0,3.188,3.188A3.189,3.189,0,0,0,8.5,11.6Z" transform="translate(0 0.1)"/>
</svg>
