<svg xmlns="http://www.w3.org/2000/svg" width="25.311" height="33.754" viewBox="0 0 25.311 33.754">
  <path id="file-times" d="M24.381,6.459,18.851.929A3.164,3.164,0,0,0,16.617,0H3.164A3.174,3.174,0,0,0,0,3.17V30.59a3.164,3.164,0,0,0,3.164,3.164H22.147a3.164,3.164,0,0,0,3.164-3.164V8.7a3.179,3.179,0,0,0-.929-2.241ZM16.874,3.427,21.89,8.443H16.874ZM22.147,30.59H3.164V3.17H13.71v6.855a1.578,1.578,0,0,0,1.582,1.582h6.855ZM17.457,17.4a1.055,1.055,0,0,0,0-1.492l-.746-.749a1.055,1.055,0,0,0-1.492,0L12.583,17.8,10,15.21a1.055,1.055,0,0,0-1.492,0l-.745.745a1.055,1.055,0,0,0,0,1.492l2.589,2.585-2.61,2.61a1.055,1.055,0,0,0,0,1.492l.746.745a1.055,1.055,0,0,0,1.492,0l2.613-2.61,2.637,2.637a1.055,1.055,0,0,0,1.492,0l.746-.746a1.055,1.055,0,0,0,0-1.492l-2.637-2.633Z" fill="#dc2a2a"/>
</svg>
