<svg xmlns="http://www.w3.org/2000/svg" width="72.656" height="73.828" viewBox="0 0 72.656 73.828"><path class="a" d="M58.594-57.7a3.511,3.511,0,0,0-5.1,1.143l-2.314,4.116a3.5,3.5,0,0,0,.952,4.526,24.619,24.619,0,0,1,9.976,19.629A24.6,24.6,0,0,1,37.5-3.516,24.591,24.591,0,0,1,12.891-28.14,24.49,24.49,0,0,1,22.852-47.9a3.514,3.514,0,0,0,.967-4.541L21.5-56.557a3.526,3.526,0,0,0-5.127-1.128A36.332,36.332,0,0,0,1.172-28.066,36.41,36.41,0,0,0,37.573,8.2,36.334,36.334,0,0,0,73.828-28.125,36.256,36.256,0,0,0,58.594-57.7ZM43.359-26.953V-62.109a3.507,3.507,0,0,0-3.516-3.516H35.156a3.507,3.507,0,0,0-3.516,3.516v35.156a3.507,3.507,0,0,0,3.516,3.516h4.687A3.507,3.507,0,0,0,43.359-26.953Z" transform="translate(-1.172 65.625)"/></svg>