<svg xmlns="http://www.w3.org/2000/svg" width="65.625" height="57.422" viewBox="0 0 65.625 57.422">

<path d="M2.344-46.289H63.281a2.344,2.344,0,0,0,2.344-2.344v-5.859a2.344,2.344,0,0,0-2.344-2.344H2.344A2.344,2.344,0,0,0,0-54.492v5.859A2.344,2.344,0,0,0,2.344-46.289Zm0,23.437H63.281A2.344,2.344,0,0,0,65.625-25.2v-5.859A2.344,2.344,0,0,0,63.281-33.4H2.344A2.344,2.344,0,0,0,0-31.055V-25.2A2.344,2.344,0,0,0,2.344-22.852Zm0,23.437H63.281a2.344,2.344,0,0,0,2.344-2.344V-7.617a2.344,2.344,0,0,0-2.344-2.344H2.344A2.344,2.344,0,0,0,0-7.617v5.859A2.344,2.344,0,0,0,2.344.586Z" transform="translate(0 56.836)"/>
</svg>