<svg xmlns="http://www.w3.org/2000/svg" width="72.656" height="72.656" viewBox="0 0 72.656 72.656">
  <path d="M37.5-64.453A36.334,36.334,0,0,0,1.172-28.125,36.326,36.326,0,0,0,37.5,8.2,36.326,36.326,0,0,0,73.828-28.125,36.334,36.334,0,0,0,37.5-64.453Zm0,65.625a29.279,29.279,0,0,1-29.3-29.3,29.287,29.287,0,0,1,29.3-29.3,29.287,29.287,0,0,1,29.3,29.3A29.279,29.279,0,0,1,37.5,1.172Zm15.71-37.383c0-7.4-7.673-13.008-14.861-13.008-6.863,0-11.272,2.855-14.733,7.937a1.762,1.762,0,0,0,.387,2.4l4.076,3.091a1.759,1.759,0,0,0,2.441-.311c2.2-2.782,3.773-4.39,7.169-4.39,2.605,0,5.828,1.677,5.828,4.2,0,1.91-1.577,2.891-4.149,4.333-3,1.682-6.97,3.775-6.97,9.011v1.268a1.758,1.758,0,0,0,1.758,1.758h6.687A1.758,1.758,0,0,0,42.6-21.68v-.928C42.6-26.238,53.209-26.389,53.209-36.211ZM43.652-11.719A6.159,6.159,0,0,0,37.5-17.871a6.159,6.159,0,0,0-6.152,6.152A6.159,6.159,0,0,0,37.5-5.566,6.159,6.159,0,0,0,43.652-11.719Z" transform="translate(-1.172 64.453)"/>
</svg>