<svg xmlns="http://www.w3.org/2000/svg" width="72.656" height="72.656" viewBox="0 0 72.656 72.656">
  <path d="M73.828-28.125A36.334,36.334,0,0,0,37.5-64.453,36.334,36.334,0,0,0,1.172-28.125,36.326,36.326,0,0,0,37.5,8.2,36.326,36.326,0,0,0,73.828-28.125ZM38.475-52.441c8.257,0,17.07,6.445,17.07,14.941,0,11.282-12.185,11.456-12.185,15.625v.2A1.758,1.758,0,0,1,41.6-19.922H33.4a1.758,1.758,0,0,1-1.758-1.758v-.586c0-6.014,4.56-8.419,8.006-10.35,2.955-1.657,4.766-2.783,4.766-4.977,0-2.9-3.7-4.828-6.694-4.828-3.983,0-5.777,1.925-8.394,5.244a1.757,1.757,0,0,1-2.441.311L21.8-40.72a1.76,1.76,0,0,1-.4-2.382C25.4-49.078,30.492-52.441,38.475-52.441ZM37.5-16.113a6.746,6.746,0,0,1,6.738,6.738A6.746,6.746,0,0,1,37.5-2.637a6.746,6.746,0,0,1-6.738-6.738A6.746,6.746,0,0,1,37.5-16.113Z" transform="translate(-1.172 64.453)"/>
</svg>