<svg xmlns="http://www.w3.org/2000/svg" width="52.501" height="51.704" viewBox="0 0 52.501 51.704">
  <g id="StartOver" transform="translate(-1.3 -2.5)">
    <path id="Path_3479" data-name="Path 3479" d="M5.287,2.5a1.157,1.157,0,0,1,1.2,1.329L6.218,14.064A26.573,26.573,0,0,1,28.016,2.5a25.852,25.852,0,0,1-.133,51.7A25.64,25.64,0,0,1,10.6,47.558a1.285,1.285,0,0,1,0-1.861l2.127-2.127a1.135,1.135,0,0,1,1.728,0A20.475,20.475,0,1,0,9.408,19.912l13.158-.266a1.311,1.311,0,0,1,1.329,1.2v2.924a1.191,1.191,0,0,1-1.2,1.2H2.5a1.191,1.191,0,0,1-1.2-1.2V3.829a1.191,1.191,0,0,1,1.2-1.2H5.287Z" transform="translate(0 0)"/>
  </g>
</svg>
