<svg xmlns="http://www.w3.org/2000/svg" width="65.625" height="75" viewBox="0 0 65.625 75">
  <path d="M39.258-4.687h3.516a1.758,1.758,0,0,0,1.758-1.758V-38.086a1.758,1.758,0,0,0-1.758-1.758H39.258A1.758,1.758,0,0,0,37.5-38.086V-6.445A1.758,1.758,0,0,0,39.258-4.687ZM63.281-53.906H51.209l-4.98-8.306A7.8,7.8,0,0,0,40.2-65.625H25.428A7.8,7.8,0,0,0,19.4-62.212l-4.983,8.306H2.344A2.345,2.345,0,0,0,0-51.562v2.344a2.345,2.345,0,0,0,2.344,2.344H4.687V2.344a7.034,7.034,0,0,0,7.031,7.031H53.906a7.034,7.034,0,0,0,7.031-7.031V-46.875h2.344a2.345,2.345,0,0,0,2.344-2.344v-2.344A2.345,2.345,0,0,0,63.281-53.906ZM25.172-58.167a.975.975,0,0,1,.753-.426H39.7a.975.975,0,0,1,.753.426l2.558,4.261H22.616ZM53.906,2.344H11.719V-46.875H53.906ZM22.852-4.687h3.516a1.758,1.758,0,0,0,1.758-1.758V-38.086a1.758,1.758,0,0,0-1.758-1.758H22.852a1.758,1.758,0,0,0-1.758,1.758V-6.445A1.758,1.758,0,0,0,22.852-4.687Z" transform="translate(0 65.625)"/>
</svg>